<svg width="119" height="107" viewBox="0 0 119 107" fill="none" xmlns="http://www.w3.org/2000/svg">
<path d="M0 90.0397V0H19.4134V90.0397H0Z" fill="#1D0254"/>
<path d="M109.5 88C104.19 88 100 83.5284 100 78C100 72.4092 104.19 68 109.5 68C114.752 68 119 72.4092 119 78C119 83.5284 114.752 88 109.5 88Z" fill="#EC096F"/>
<path d="M66.03 23C82.121 23 92 35.0842 92 55.2809C92 75.4203 82.1804 87.5618 66.3258 87.5618C57.098 87.5618 49.9996 83.1249 46.6273 76.0629H46.2721V107H29V23.9932H46.0356V34.9082H46.3909C49.8213 27.5542 56.8616 23 66.03 23ZM60.2339 73.8432C68.8699 73.8432 74.3119 66.6651 74.3119 55.2809C74.3119 43.9567 68.8699 36.66 60.2339 36.66C51.7736 36.66 46.2139 44.0739 46.2139 55.2809C46.2139 66.6065 51.7736 73.8432 60.2339 73.8432Z" fill="#1D0254"/>
</svg>
